{
	"asset":{
		"generator":"Khronos glTF Blender I/O v4.5.49",
		"version":"2.0"
	},
	"scene":0,
	"scenes":[
		{
			"name":"Scene",
			"nodes":[
				0
			]
		}
	],
	"nodes":[
		{
			"mesh":0,
			"name":"shar",
			"rotation":[
				0.70710688829422,
				0,
				0,
				0.7071066498756409
			],
			"scale":[
				0.029999999329447746,
				0.029999997466802597,
				0.029999997466802597
			]
		}
	],
	"meshes":[
		{
			"name":"Mesh",
			"primitives":[
				{
					"attributes":{
						"POSITION":0,
						"NORMAL":1,
						"TEXCOORD_0":2
					},
					"indices":3
				}
			]
		}
	],
	"accessors":[
		{
			"bufferView":0,
			"componentType":5126,
			"count":726,
			"max":[
				14.292245864868164,
				14.292245864868164,
				-0.15091456472873688
			],
			"min":[
				-14.292245864868164,
				-14.292245864868164,
				-40.057254791259766
			],
			"type":"VEC3"
		},
		{
			"bufferView":1,
			"componentType":5126,
			"count":726,
			"type":"VEC3"
		},
		{
			"bufferView":2,
			"componentType":5126,
			"count":726,
			"type":"VEC2"
		},
		{
			"bufferView":3,
			"componentType":5123,
			"count":3600,
			"type":"SCALAR"
		}
	],
	"bufferViews":[
		{
			"buffer":0,
			"byteLength":8712,
			"byteOffset":0,
			"target":34962
		},
		{
			"buffer":0,
			"byteLength":8712,
			"byteOffset":8712,
			"target":34962
		},
		{
			"buffer":0,
			"byteLength":5808,
			"byteOffset":17424,
			"target":34962
		},
		{
			"buffer":0,
			"byteLength":7200,
			"byteOffset":23232,
			"target":34963
		}
	],
	"buffers":[
		{
			"byteLength":30432,
			"uri":"LonePair.bin"
		}
	]
}
